<svg width="93" height="26" viewBox="0 0 93 26" fill="none" xmlns="http://www.w3.org/2000/svg">
<path d="M3.27588 25C3.27588 25.1067 3.27588 25.16 3.27588 25.16C3.19054 25.16 3.12654 25.1067 3.08388 25C2.78521 24.232 2.65721 23.4107 2.69988 22.536C2.74254 21.6613 2.89188 20.7653 3.14788 19.848C3.40388 18.9307 3.74521 18.0133 4.17188 17.096C4.61988 16.1573 5.09988 15.2507 5.61188 14.376C5.03588 13.992 4.55588 13.512 4.17188 12.936C3.80921 12.3387 3.48921 11.7093 3.21188 11.048C2.87054 10.2587 2.58254 9.45867 2.34788 8.648C2.11321 7.83733 1.88921 7.048 1.67588 6.28C1.46254 5.512 1.23854 4.78666 1.00388 4.104C0.769208 3.4 0.491875 2.77067 0.171875 2.216C0.171875 2.13067 0.182542 2.09867 0.203875 2.12C0.865208 2.58933 1.37721 3.16533 1.73988 3.848C2.12388 4.53067 2.43321 5.26667 2.66788 6.056C2.92388 6.84533 3.15854 7.66667 3.37188 8.52C3.58521 9.352 3.86254 10.152 4.20388 10.92C4.43854 11.4533 4.69454 11.9547 4.97188 12.424C5.27054 12.872 5.63321 13.2987 6.05988 13.704L6.47588 13.032C6.32654 12.84 6.20921 12.6693 6.12388 12.52C6.05988 12.3493 6.05988 12.2427 6.12388 12.2C6.16654 12.2 6.24121 12.2427 6.34788 12.328C6.45454 12.392 6.57188 12.4987 6.69988 12.648C6.91321 12.4133 7.07321 12.1787 7.17988 11.944C6.79588 11.24 6.45454 10.504 6.15588 9.736C5.87854 8.968 5.61188 8.17867 5.35588 7.368C5.14254 6.68533 4.91854 6.024 4.68388 5.384C4.44921 4.744 4.11854 4.05067 3.69188 3.304C3.67054 3.26133 3.63854 3.22933 3.59588 3.208C3.57454 3.16533 3.57454 3.13333 3.59588 3.112C3.63854 3.06933 3.71321 3.08 3.81988 3.144C4.26788 3.336 4.66254 3.69867 5.00388 4.232C5.36654 4.744 5.68654 5.30933 5.96388 5.928C6.24121 6.54667 6.47588 7.16533 6.66788 7.784C6.88121 8.38133 7.05188 8.86133 7.17988 9.224L7.85188 10.984C9.04654 9.23467 10.1879 7.528 11.2759 5.864C12.3852 4.2 13.2172 2.568 13.7719 0.967999C13.8145 0.861332 13.8359 0.807999 13.8359 0.807999C13.8785 0.765333 13.8999 0.797333 13.8999 0.903999C13.9212 0.989333 13.9319 1.04267 13.9319 1.064C13.8252 2.28 13.5052 3.47467 12.9719 4.648C12.4385 5.82133 11.7985 6.99467 11.0519 8.168C10.3265 9.32 9.53721 10.4827 8.68388 11.656C7.83054 12.8293 7.04121 14.0133 6.31588 15.208C5.84654 15.976 5.40921 16.7867 5.00388 17.64C4.59854 18.4933 4.24654 19.3573 3.94788 20.232C3.67054 21.0853 3.46788 21.928 3.33988 22.76C3.21188 23.5707 3.19054 24.3173 3.27588 25ZM9.61188 16.616C9.29188 17.128 8.95054 17.6613 8.58788 18.216C8.22521 18.7493 7.85188 19.272 7.46788 19.784C7.10521 20.296 6.75321 20.7867 6.41188 21.256C6.07054 21.7253 5.76121 22.152 5.48388 22.536C5.37721 22.6853 5.28121 22.8027 5.19588 22.888C5.11054 22.952 5.05721 22.9733 5.03588 22.952C4.99321 22.952 4.99321 22.888 5.03588 22.76C5.07854 22.632 5.12121 22.5147 5.16388 22.408C5.84654 20.6587 6.69988 18.9733 7.72388 17.352C8.76921 15.7307 9.83588 14.0987 10.9239 12.456C11.5852 11.432 12.2572 10.408 12.9399 9.384C13.6225 8.33867 14.2199 7.144 14.7319 5.8C14.7745 5.69333 14.7852 5.62933 14.7639 5.608C14.7639 5.58667 14.7852 5.576 14.8279 5.576C14.8705 5.59733 14.8919 5.64 14.8919 5.704C14.8919 5.768 14.8919 5.832 14.8919 5.896C14.8919 6.36533 14.7959 6.89867 14.6039 7.496C14.4119 8.09333 14.1559 8.73333 13.8359 9.416C13.5159 10.0773 13.1639 10.76 12.7799 11.464C12.3959 12.1467 12.0012 12.808 11.5959 13.448C11.2119 14.088 10.8385 14.6853 10.4759 15.24C10.1345 15.7733 9.84654 16.232 9.61188 16.616ZM12.6519 8.968C11.9052 10.12 11.0839 11.3147 10.1879 12.552C9.29188 13.7893 8.40654 14.9307 7.53188 15.976C7.48921 16.0187 7.39321 16.1253 7.24388 16.296C7.09454 16.4453 6.98788 16.4987 6.92388 16.456C6.88121 16.4133 6.89188 16.3067 6.95588 16.136C7.04121 15.944 7.10521 15.816 7.14788 15.752C7.29721 15.4533 7.47854 15.112 7.69188 14.728C7.90521 14.3227 8.12921 13.9173 8.36388 13.512C8.59854 13.1067 8.83321 12.712 9.06788 12.328C9.32388 11.944 9.54788 11.6133 9.73988 11.336C9.82521 11.208 9.99588 10.9413 10.2519 10.536C10.5079 10.1093 10.7959 9.61867 11.1159 9.064C11.4359 8.488 11.7772 7.86933 12.1399 7.208C12.5025 6.54667 12.8332 5.90667 13.1319 5.288C13.4305 4.648 13.6865 4.06133 13.8999 3.528C14.1132 2.97333 14.2305 2.536 14.2519 2.216C14.2945 2.00267 14.3265 1.896 14.3479 1.896C14.3905 1.896 14.4225 1.94933 14.4439 2.056C14.4652 2.14133 14.4865 2.20533 14.5079 2.248C14.5932 2.696 14.5932 3.21866 14.5079 3.816C14.4225 4.41333 14.2839 5.032 14.0919 5.672C13.9212 6.29067 13.6972 6.89867 13.4199 7.496C13.1639 8.072 12.9079 8.56267 12.6519 8.968ZM4.23588 5.32C4.47054 6.10933 4.69454 6.952 4.90788 7.848C5.14254 8.72267 5.33454 9.576 5.48388 10.408C5.50521 10.4507 5.50521 10.5253 5.48388 10.632C5.48388 10.7173 5.46254 10.7813 5.41988 10.824C5.37721 10.8453 5.31321 10.8133 5.22788 10.728C5.14254 10.6427 5.08921 10.5787 5.06788 10.536C4.96121 10.3867 4.84388 10.1947 4.71588 9.96C4.58788 9.72533 4.47054 9.48 4.36388 9.224C4.25721 8.968 4.15054 8.712 4.04388 8.456C3.95854 8.2 3.88388 7.976 3.81988 7.784C3.75588 7.57067 3.61721 7.208 3.40388 6.696C3.21188 6.16267 2.97721 5.608 2.69988 5.032C2.44388 4.456 2.16654 3.912 1.86788 3.4C1.59054 2.888 1.33454 2.536 1.09988 2.344C0.971875 2.216 0.929208 2.152 0.971875 2.152C0.993208 2.13067 1.03588 2.13067 1.09988 2.152C1.16388 2.17333 1.21721 2.19467 1.25988 2.216C1.60121 2.32267 1.93188 2.49333 2.25188 2.728C2.59321 2.96266 2.89188 3.22933 3.14788 3.528C3.42521 3.82667 3.64921 4.136 3.81988 4.456C4.01188 4.75467 4.15054 5.04267 4.23588 5.32ZM4.42788 23.336C4.34254 23.7413 4.27854 24.104 4.23588 24.424C4.21454 24.7227 4.20388 24.9893 4.20388 25.224C4.20388 25.2667 4.20388 25.32 4.20388 25.384C4.20388 25.448 4.17188 25.48 4.10788 25.48C4.06521 25.48 4.01188 25.448 3.94788 25.384C3.90521 25.3413 3.87321 25.288 3.85188 25.224C3.80921 25.1173 3.76654 25.0107 3.72388 24.904C3.68121 24.7973 3.64921 24.68 3.62788 24.552C3.60654 24.4027 3.60654 24.2213 3.62788 24.008C3.64921 23.7733 3.69188 23.4853 3.75588 23.144C3.81988 22.8667 3.91588 22.5253 4.04388 22.12C4.17188 21.7147 4.31054 21.3307 4.45988 20.968C4.60921 20.584 4.74788 20.2747 4.87587 20.04C5.02521 19.8053 5.14254 19.7093 5.22788 19.752C5.24921 19.7733 5.24921 19.848 5.22788 19.976C5.22788 20.104 5.20654 20.2533 5.16388 20.424C5.12121 20.5733 5.07854 20.7227 5.03588 20.872C4.99321 21.0213 4.96121 21.128 4.93988 21.192C4.83321 21.5547 4.73721 21.9173 4.65188 22.28C4.58788 22.6213 4.51321 22.9733 4.42788 23.336ZM21.9639 11.944C22.1345 12.1573 22.2625 12.424 22.3479 12.744C22.4545 13.064 22.4972 13.416 22.4759 13.8C22.4545 14.1627 22.3692 14.5467 22.2199 14.952C22.0705 15.3573 21.8359 15.752 21.5159 16.136C20.8972 16.8613 20.2145 17.4267 19.4679 17.832C18.7425 18.216 18.0812 18.408 17.4839 18.408C17.1212 18.408 17.1212 18.344 17.4839 18.216C17.6759 18.152 17.8999 18.056 18.1559 17.928C18.4332 17.7787 18.7212 17.608 19.0199 17.416C19.3185 17.2027 19.6172 16.9573 19.9159 16.68C20.2359 16.4027 20.5239 16.0827 20.7799 15.72C21.2065 15.1227 21.4519 14.5467 21.5159 13.992C21.6012 13.416 21.4945 12.9787 21.1959 12.68C20.9399 12.424 20.6412 12.2853 20.2999 12.264C19.9585 12.2213 19.4465 12.4027 18.7639 12.808C18.1452 13.1707 17.5905 13.6187 17.0999 14.152C16.6092 14.6853 16.1505 15.2507 15.7239 15.848C15.4892 16.1467 15.3292 16.296 15.2439 16.296C15.1799 16.296 15.2119 16.104 15.3399 15.72C15.5959 14.9733 15.9479 14.28 16.3959 13.64C16.8652 13 17.4199 12.456 18.0599 12.008C18.5292 11.688 18.9559 11.464 19.3399 11.336C19.7452 11.208 20.1079 11.1547 20.4279 11.176C20.7692 11.1973 21.0679 11.2827 21.3239 11.432C21.5799 11.56 21.7932 11.7307 21.9639 11.944ZM23.6919 14.184C23.6065 14.696 23.4679 15.1333 23.2759 15.496C23.1052 15.8373 22.9025 16.136 22.6679 16.392C22.4545 16.6267 22.2305 16.8187 21.9959 16.968C21.7825 17.1173 21.5905 17.256 21.4199 17.384C21.3345 17.448 21.2705 17.4587 21.2279 17.416C21.1852 17.3733 21.2172 17.2987 21.3239 17.192C21.7079 16.872 22.0919 16.4453 22.4759 15.912C22.8812 15.3573 23.0945 14.7493 23.1159 14.088C23.1159 12.9573 22.8385 12.0933 22.2839 11.496C21.7292 10.8987 21.0359 10.6427 20.2039 10.728C19.3719 10.792 18.5079 11.112 17.6119 11.688C17.0359 12.0507 16.5239 12.4773 16.0759 12.968C15.6492 13.4373 15.2759 13.9493 14.9559 14.504C14.6359 15.0373 14.3692 15.592 14.1559 16.168C13.9639 16.744 13.8252 17.32 13.7399 17.896C13.6545 18.4507 13.5692 19.048 13.4839 19.688C13.4199 20.328 13.4199 20.9573 13.4839 21.576C13.5692 22.1947 13.7719 22.792 14.0919 23.368C14.4119 23.9227 14.9132 24.4027 15.5959 24.808C15.7025 24.872 15.8092 24.9147 15.9159 24.936C16.0439 24.9573 16.1079 24.9787 16.1079 25C16.1079 25.0427 16.0545 25.064 15.9479 25.064C15.8412 25.0853 15.7239 25.0747 15.5959 25.032C15.0625 24.9253 14.6039 24.712 14.2199 24.392C13.8572 24.0507 13.5585 23.6667 13.3239 23.24C13.0892 22.8133 12.9079 22.3653 12.7799 21.896C12.6519 21.4267 12.5772 21 12.5559 20.616C12.4279 18.9307 12.6625 17.2667 13.2599 15.624C13.3879 15.2827 13.5479 14.8987 13.7399 14.472C13.9532 14.0453 14.2092 13.6187 14.5079 13.192C14.8065 12.744 15.1585 12.3173 15.5639 11.912C15.9692 11.4853 16.4279 11.112 16.9399 10.792C17.4305 10.4933 17.9425 10.2693 18.4759 10.12C19.0092 9.97067 19.5425 9.90667 20.0759 9.928C20.6092 9.928 21.1105 10.024 21.5799 10.216C22.0492 10.3867 22.4652 10.6533 22.8279 11.016C23.1479 11.3573 23.3932 11.7947 23.5639 12.328C23.7559 12.8613 23.7985 13.48 23.6919 14.184ZM20.7799 13.032C21.0359 13.3307 21.0679 13.8 20.8759 14.44C20.6839 15.0587 20.2359 15.688 19.5319 16.328C19.1479 16.6907 18.7745 16.9893 18.4119 17.224C18.0492 17.4373 17.5905 17.6293 17.0359 17.8C16.8012 18.6107 16.6519 19.4107 16.5879 20.2C16.5239 20.9893 16.5452 21.6293 16.6519 22.12C16.6732 22.312 16.7372 22.504 16.8439 22.696C16.9719 22.8667 17.1425 23.0053 17.3559 23.112C17.5905 23.1973 17.8892 23.2293 18.2519 23.208C18.6145 23.1867 19.0625 23.0693 19.5959 22.856C19.7452 22.792 19.8305 22.7813 19.8519 22.824C19.8945 22.8453 19.8305 22.9093 19.6599 23.016C19.2759 23.3147 18.8705 23.528 18.4439 23.656C18.0172 23.7627 17.6119 23.7947 17.2279 23.752C16.8652 23.7093 16.5452 23.5813 16.2679 23.368C16.0119 23.1547 15.8412 22.8667 15.7559 22.504C15.5852 21.7573 15.5105 20.9787 15.5319 20.168C15.5532 19.3573 15.6705 18.5573 15.8839 17.768C16.1185 16.9787 16.4385 16.2427 16.8439 15.56C17.2705 14.856 17.7932 14.2587 18.4119 13.768C19.5639 12.8507 20.3532 12.6053 20.7799 13.032ZM20.4599 23.24C20.3105 23.4533 20.1185 23.6667 19.8839 23.88C19.6705 24.072 19.4145 24.2533 19.1159 24.424C18.8385 24.5733 18.5399 24.7013 18.2199 24.808C17.9212 24.9147 17.6119 24.968 17.2919 24.968C16.7372 24.968 16.2145 24.8507 15.7239 24.616C15.2545 24.36 14.8919 23.8587 14.6359 23.112C14.5932 23.0267 14.5719 22.952 14.5719 22.888C14.5719 22.8027 14.5932 22.76 14.6359 22.76C14.7212 22.7173 14.8065 22.7493 14.8919 22.856C14.9772 22.9413 15.0625 23.0373 15.1479 23.144C15.3825 23.4213 15.6812 23.6667 16.0439 23.88C16.4279 24.0933 16.7905 24.2 17.1319 24.2C17.7719 24.2 18.3265 24.104 18.7959 23.912C19.2652 23.72 19.7132 23.464 20.1399 23.144C20.2465 23.08 20.3639 23.016 20.4919 22.952C20.6412 22.888 20.6305 22.984 20.4599 23.24ZM20.0119 13.896C19.9265 13.7253 19.6172 13.864 19.0839 14.312C18.5932 14.696 18.1985 15.144 17.8999 15.656C17.6225 16.1467 17.3772 16.6907 17.1639 17.288C17.5692 17.096 17.9425 16.8827 18.2839 16.648C18.6252 16.392 18.9452 16.1467 19.2439 15.912C19.5639 15.6347 19.7985 15.272 19.9479 14.824C20.0972 14.376 20.1185 14.0667 20.0119 13.896ZM36.0679 13.736C35.8972 14.5893 35.6092 15.4427 35.2039 16.296C34.7985 17.1493 34.4145 17.9493 34.0519 18.696C34.0305 18.7387 33.9772 18.8133 33.8919 18.92C33.8279 19.0267 33.7745 19.08 33.7319 19.08C33.6679 19.0587 33.6359 18.9947 33.6359 18.888C33.6359 18.76 33.6359 18.6747 33.6359 18.632C33.6572 18.44 33.6892 18.216 33.7319 17.96C33.7959 17.6827 33.8492 17.4053 33.8919 17.128C33.9345 16.8293 33.9772 16.552 34.0199 16.296C34.0839 16.0187 34.1479 15.7733 34.2119 15.56C34.4039 14.8347 34.5639 14.216 34.6919 13.704C34.8199 13.1707 34.9159 12.6907 34.9799 12.264C35.0439 11.8373 35.0759 11.432 35.0759 11.048C35.0972 10.664 35.0759 10.248 35.0119 9.8C34.9905 9.62933 35.0012 9.52267 35.0439 9.48C35.0865 9.45867 35.1399 9.48 35.2039 9.544C35.2679 9.608 35.3212 9.672 35.3639 9.736C35.7265 10.312 35.9719 10.952 36.0999 11.656C36.2279 12.3387 36.2172 13.032 36.0679 13.736ZM36.8359 11.592C37.1132 11.9973 37.2519 12.5307 37.2519 13.192C37.2519 13.8533 37.1879 14.536 37.0599 15.24C36.9319 15.9227 36.7719 16.584 36.5799 17.224C36.3879 17.864 36.2492 18.376 36.1639 18.76C35.9932 19.5067 35.7585 20.2533 35.4599 21C35.1612 21.7467 34.9052 22.408 34.6919 22.984C34.6705 23.048 34.6385 23.1227 34.5959 23.208C34.5532 23.272 34.5105 23.304 34.4679 23.304C34.4252 23.304 34.4039 23.2613 34.4039 23.176C34.4039 23.0907 34.4039 23.016 34.4039 22.952C34.3399 21.7787 34.4679 20.6373 34.7879 19.528C35.1079 18.3973 35.4492 17.256 35.8119 16.104C36.0252 15.4 36.2279 14.6853 36.4199 13.96C36.6119 13.2133 36.6972 12.4027 36.6759 11.528C36.6759 11.4427 36.6865 11.4 36.7079 11.4L36.8359 11.592ZM33.8279 11.048C32.5265 11.5813 31.4172 12.3493 30.4999 13.352C29.6039 14.3333 28.9105 15.4427 28.4199 16.68C28.2065 17.2347 28.0465 17.736 27.9399 18.184C27.8332 18.6107 27.7479 19.08 27.6839 19.592C27.6625 19.6987 27.6945 19.8053 27.7799 19.912C27.8652 20.0187 27.9505 20.0187 28.0359 19.912C28.4199 19.4427 28.9105 18.8453 29.5079 18.12C30.1052 17.3947 30.7025 16.6267 31.2999 15.816C31.8972 15.0053 32.4305 14.184 32.8999 13.352C33.3905 12.52 33.6999 11.752 33.8279 11.048ZM31.6839 21.896C31.3639 22.344 31.0545 22.76 30.7559 23.144C30.4572 23.528 30.1265 23.8693 29.7639 24.168C29.4012 24.4453 28.9959 24.6693 28.5479 24.84C28.0999 25.0107 27.5879 25.1067 27.0119 25.128C26.0519 25.1707 25.3159 24.9253 24.8039 24.392C24.3132 23.8587 23.9719 23.208 23.7799 22.44C23.5879 21.672 23.5132 20.8827 23.5559 20.072C23.6199 19.24 23.7372 18.5573 23.9079 18.024C24.1425 17.2773 24.4199 16.5733 24.7399 15.912C25.0812 15.2293 25.4332 14.6213 25.7959 14.088C26.1799 13.5333 26.5639 13.064 26.9479 12.68C27.3532 12.2747 27.7479 11.9653 28.1319 11.752C28.1532 11.752 28.1959 11.7307 28.2599 11.688C28.3452 11.6453 28.3879 11.656 28.3879 11.72C28.4092 11.72 28.3985 11.752 28.3559 11.816C28.3132 11.88 28.2705 11.9333 28.2279 11.976C27.1185 13.128 26.2332 14.4293 25.5719 15.88C24.9319 17.3307 24.5692 18.824 24.4839 20.36C24.4625 20.744 24.4732 21.16 24.5159 21.608C24.5799 22.056 24.6865 22.4827 24.8359 22.888C25.0065 23.272 25.2412 23.6027 25.5399 23.88C25.8385 24.136 26.2439 24.264 26.7559 24.264C27.1612 24.264 27.5345 24.2 27.8759 24.072C28.2172 23.9227 28.5372 23.7413 28.8359 23.528C29.1345 23.2933 29.4012 23.048 29.6359 22.792C29.8919 22.5147 30.1159 22.2587 30.3079 22.024C30.7345 21.4907 31.1292 20.936 31.4919 20.36C31.4919 19.9333 31.5132 19.5173 31.5559 19.112C31.6199 18.7067 31.7052 18.3013 31.8119 17.896C31.8759 17.5973 31.9292 17.3627 31.9719 17.192C32.0359 17 32.0892 16.8293 32.1319 16.68C32.1959 16.5093 32.2492 16.3387 32.2919 16.168C32.3559 15.976 32.4412 15.7307 32.5479 15.432C32.2065 16.0293 31.8652 16.5947 31.5239 17.128C31.2039 17.64 30.8519 18.1413 30.4679 18.632C30.1052 19.1013 29.7212 19.5707 29.3159 20.04C28.9319 20.488 28.5052 20.9467 28.0359 21.416C27.6732 21.7787 27.3745 21.896 27.1399 21.768C26.9052 21.64 26.7665 21.3413 26.7239 20.872C26.6812 20.1467 26.7132 19.4427 26.8199 18.76C26.9479 18.0773 27.1612 17.3627 27.4599 16.616C27.7372 15.9333 28.0785 15.272 28.4839 14.632C28.9105 13.992 29.3905 13.416 29.9239 12.904C30.4785 12.3707 31.0865 11.9227 31.7479 11.56C32.4092 11.176 33.1132 10.92 33.8599 10.792C33.9025 10.5573 33.9345 10.3547 33.9559 10.184C33.9985 10.0133 34.0305 9.84267 34.0519 9.672C34.0945 9.43733 34.1159 9.32 34.1159 9.32C34.1585 9.29867 34.2012 9.32 34.2439 9.384C34.3079 9.448 34.3612 9.53333 34.4039 9.64C34.6599 10.344 34.7452 11.048 34.6599 11.752C34.5745 12.456 34.4145 13.1707 34.1799 13.896C33.9665 14.6213 33.7105 15.368 33.4119 16.136C33.1132 16.8827 32.8679 17.64 32.6759 18.408C32.4199 19.496 32.3452 20.6267 32.4519 21.8C32.5799 22.952 33.0385 23.9973 33.8279 24.936C33.8919 25.0213 33.9239 25.064 33.9239 25.064C33.9025 25.0853 33.8385 25.064 33.7319 25C33.1132 24.616 32.6439 24.1573 32.3239 23.624C32.0252 23.0693 31.8119 22.4933 31.6839 21.896ZM32.8039 10.568C32.8465 10.6107 32.8359 10.6427 32.7719 10.664C32.7292 10.6853 32.6225 10.7173 32.4519 10.76C32.1745 10.8453 31.8332 11.0053 31.4279 11.24C31.0439 11.4747 30.6279 11.7733 30.1799 12.136C29.7532 12.4987 29.3265 12.9253 28.8999 13.416C28.4732 13.8853 28.0999 14.3973 27.7799 14.952C27.4599 15.528 27.1825 16.0933 26.9479 16.648C26.7345 17.2027 26.5532 17.7147 26.4039 18.184C26.2759 18.632 26.1799 19.0267 26.1159 19.368C26.0519 19.688 26.0199 19.912 26.0199 20.04C26.0199 20.36 26.0199 20.7013 26.0199 21.064C26.0199 21.4053 26.0625 21.7147 26.1479 21.992C26.2332 22.2693 26.3825 22.4827 26.5959 22.632C26.8092 22.7813 27.1292 22.824 27.5559 22.76C27.5772 22.76 27.6305 22.7493 27.7159 22.728C27.8012 22.6853 27.8865 22.6533 27.9719 22.632C28.0572 22.5893 28.1319 22.5573 28.1959 22.536C28.2812 22.5147 28.3345 22.504 28.3559 22.504C28.3772 22.5467 28.3559 22.6 28.2919 22.664C28.2492 22.728 28.1852 22.8027 28.0999 22.888C28.0145 22.952 27.9292 23.016 27.8439 23.08C27.7799 23.144 27.7372 23.1867 27.7159 23.208C27.1825 23.528 26.7345 23.624 26.3719 23.496C26.0092 23.368 25.7212 23.1333 25.5079 22.792C25.3159 22.4293 25.1772 22.0133 25.0919 21.544C25.0279 21.0533 25.0065 20.616 25.0279 20.232C25.0705 19.4853 25.1879 18.7493 25.3799 18.024C25.5719 17.2773 25.8172 16.5307 26.1159 15.784C26.3505 15.208 26.7025 14.6213 27.1719 14.024C27.6412 13.4053 28.1639 12.84 28.7399 12.328C29.3372 11.816 29.9559 11.4 30.5959 11.08C31.2359 10.7387 31.8545 10.5573 32.4519 10.536C32.6652 10.536 32.7825 10.5467 32.8039 10.568ZM34.6919 24.936C34.7345 25 34.7452 25.0427 34.7239 25.064C34.6599 25.064 34.5745 25.0427 34.4679 25C34.4039 24.9573 34.2332 24.8293 33.9559 24.616C33.6785 24.4027 33.4759 24.0613 33.3479 23.592C33.3052 23.4213 33.2625 23.208 33.2199 22.952C33.1985 22.6747 33.1879 22.4187 33.1879 22.184C33.1879 21.9493 33.1985 21.7467 33.2199 21.576C33.2625 21.4053 33.3159 21.32 33.3799 21.32C33.4439 21.32 33.5079 21.448 33.5719 21.704C33.6572 21.96 33.7105 22.12 33.7319 22.184C33.7959 22.4827 33.8492 22.7493 33.8919 22.984C33.9559 23.1973 34.0199 23.4 34.0839 23.592C34.1692 23.8267 34.2759 24.0933 34.4039 24.392C34.5532 24.6907 34.6492 24.872 34.6919 24.936ZM41.1391 13.192C41.1605 13 41.2245 12.776 41.3311 12.52C41.4378 12.2427 41.5765 11.9867 41.7471 11.752C41.9391 11.496 42.1631 11.272 42.4191 11.08C42.6751 10.8667 42.9631 10.728 43.2831 10.664C43.9658 10.536 44.5311 10.5787 44.9791 10.792C45.4271 11.0053 45.7685 11.2507 46.0031 11.528C46.0885 11.656 46.1205 11.7307 46.0991 11.752C46.0565 11.7947 45.9818 11.784 45.8751 11.72C45.7471 11.6347 45.5338 11.56 45.2351 11.496C44.9578 11.432 44.6485 11.4213 44.3071 11.464C43.9871 11.4853 43.6671 11.5813 43.3471 11.752C43.0485 11.9227 42.8031 12.2 42.6111 12.584C42.4405 12.9467 42.3231 13.32 42.2591 13.704C42.1951 14.088 42.1525 14.4507 42.1311 14.792C42.1311 15.112 42.1418 15.3893 42.1631 15.624C42.1845 15.8587 42.1951 16.0187 42.1951 16.104C42.2378 16.3387 42.2698 16.6373 42.2911 17C42.3338 17.3413 42.3551 17.6933 42.3551 18.056C42.3551 18.4187 42.3445 18.7813 42.3231 19.144C42.3018 19.4853 42.2591 19.784 42.1951 20.04C42.1738 20.104 42.1418 20.2107 42.0991 20.36C42.0778 20.5093 42.0458 20.584 42.0031 20.584C41.8965 20.584 41.8431 20.5093 41.8431 20.36C41.8431 20.2107 41.8431 20.104 41.8431 20.04C41.8005 19.5067 41.7258 18.9733 41.6191 18.44C41.5125 17.8853 41.4058 17.32 41.2991 16.744C41.2138 16.168 41.1498 15.592 41.1071 15.016C41.0645 14.4187 41.0751 13.8107 41.1391 13.192ZM40.0191 19.528C40.0405 19.1013 39.9978 18.504 39.8911 17.736C39.8058 16.9467 39.7738 16.04 39.7951 15.016C39.8165 14.4827 39.8698 13.9387 39.9551 13.384C40.0405 12.808 40.2431 12.2427 40.5631 11.688C40.9045 11.0907 41.3311 10.6533 41.8431 10.376C42.3765 10.0773 42.8351 9.93867 43.2191 9.96C43.2831 9.96 43.3471 9.96 43.4111 9.96C43.4751 9.96 43.5071 9.97067 43.5071 9.992C43.5071 10.0347 43.4965 10.056 43.4751 10.056C43.4538 10.0347 43.3791 10.0453 43.2511 10.088C42.8671 10.1947 42.5258 10.376 42.2271 10.632C41.9285 10.8667 41.6725 11.144 41.4591 11.464C41.2458 11.784 41.0751 12.1147 40.9471 12.456C40.8191 12.7973 40.7445 13.1067 40.7231 13.384C40.5951 14.5573 40.6058 15.5813 40.7551 16.456C40.8618 17.16 40.9471 17.896 41.0111 18.664C41.0751 19.4107 41.0431 20.104 40.9151 20.744C40.8085 21.3627 40.5845 21.8853 40.2431 22.312C39.9231 22.7173 39.4218 22.9413 38.7391 22.984C38.6751 22.984 38.5898 22.984 38.4831 22.984C38.3978 22.9627 38.3551 22.9307 38.3551 22.888C38.3551 22.8453 38.4511 22.7707 38.6431 22.664C39.1978 22.408 39.5605 22.0347 39.7311 21.544C39.9018 21.0533 39.9978 20.3813 40.0191 19.528ZM36.6271 23.304C36.9258 23.7733 37.3951 24.1253 38.0351 24.36C38.6965 24.5733 39.4751 24.552 40.3711 24.296C40.8191 24.168 41.2138 23.944 41.5551 23.624C41.8965 23.304 42.1738 22.952 42.3871 22.568C42.6218 22.1627 42.7925 21.7467 42.8991 21.32C43.0271 20.8933 43.1018 20.4987 43.1231 20.136C43.1445 19.5387 43.1231 18.952 43.0591 18.376C43.0165 17.8 42.9525 17.2453 42.8671 16.712C42.8031 16.1573 42.7391 15.624 42.6751 15.112C42.6325 14.6 42.6325 14.0987 42.6751 13.608C42.7178 13.0747 42.8671 12.6693 43.1231 12.392C43.3791 12.1147 43.6885 11.944 44.0511 11.88C44.4351 11.7947 44.8298 11.816 45.2351 11.944C45.6405 12.072 46.0138 12.2747 46.3551 12.552C46.4405 12.5947 46.4725 12.648 46.4511 12.712C46.4511 12.7547 46.4298 12.7653 46.3871 12.744C46.3445 12.7227 46.3018 12.7013 46.2591 12.68C45.4698 12.424 44.8511 12.3493 44.4031 12.456C43.9765 12.5627 43.7418 12.9467 43.6991 13.608C43.6565 14.376 43.7098 15.2827 43.8591 16.328C44.0298 17.352 44.0938 18.4933 44.0511 19.752C44.0725 20.1787 44.0191 20.6693 43.8911 21.224C43.7845 21.7787 43.5925 22.3227 43.3151 22.856C43.0591 23.368 42.7071 23.8267 42.2591 24.232C41.8325 24.6373 41.3205 24.8933 40.7231 25C39.5925 25.1707 38.6858 25.1067 38.0031 24.808C37.3418 24.5093 36.8618 24.0507 36.5631 23.432C36.5205 23.304 36.4991 23.2293 36.4991 23.208H36.5311C36.5311 23.208 36.5631 23.24 36.6271 23.304ZM38.0351 23.304C38.4405 23.4107 38.9311 23.4533 39.5071 23.432C39.6991 23.4107 39.9338 23.3573 40.2111 23.272C40.4885 23.1867 40.6378 23.1653 40.6591 23.208C40.7231 23.2933 40.6591 23.4 40.4671 23.528C40.2751 23.656 40.0298 23.7733 39.7311 23.88C39.4325 23.9653 39.1231 24.0293 38.8031 24.072C38.4831 24.0933 38.2165 24.0613 38.0031 23.976C37.5978 23.8053 37.3098 23.624 37.1391 23.432C36.9471 23.2187 36.7765 22.9627 36.6271 22.664L36.5631 22.536C36.5205 22.4507 36.5098 22.3973 36.5311 22.376C36.5525 22.3547 36.5845 22.3547 36.6271 22.376C36.6485 22.3973 36.6591 22.4187 36.6591 22.44C36.9151 22.6747 37.1285 22.856 37.2991 22.984C37.4911 23.0907 37.7365 23.1973 38.0351 23.304ZM55.4586 10.792C55.48 10.8133 55.4906 10.8667 55.4906 10.952C55.4906 11.016 55.48 11.0693 55.4586 11.112C55.2666 11.7307 54.936 12.168 54.4666 12.424C53.9973 12.68 53.5813 12.808 53.2186 12.808C52.7706 12.808 52.312 12.776 51.8426 12.712C51.3733 12.6267 50.9253 12.424 50.4986 12.104C50.456 12.0613 50.4026 12.0187 50.3386 11.976C50.2746 11.9333 50.2426 11.8907 50.2426 11.848C50.2426 11.784 50.2746 11.7413 50.3386 11.72C50.4026 11.6773 50.456 11.6453 50.4986 11.624C50.6906 11.5813 50.936 11.5493 51.2346 11.528C51.5546 11.4853 51.864 11.4853 52.1626 11.528C52.376 11.5707 52.632 11.592 52.9306 11.592C53.2293 11.592 53.528 11.5707 53.8266 11.528C54.1466 11.4853 54.4346 11.4213 54.6906 11.336C54.9466 11.2293 55.1386 11.08 55.2666 10.888C55.3306 10.8027 55.3946 10.7707 55.4586 10.792ZM55.6826 9.8L55.5866 9.96C55.224 10.4293 54.84 10.7387 54.4346 10.888C54.0293 11.016 53.6026 11.0693 53.1546 11.048C52.7066 11.0267 52.248 10.9733 51.7786 10.888C51.3306 10.7813 50.8826 10.7173 50.4346 10.696C49.8373 10.6747 49.24 10.856 48.6426 11.24C48.0453 11.624 47.5333 12.296 47.1066 13.256C47.0426 13.384 47 13.416 46.9786 13.352C46.9573 13.2667 46.9573 13.192 46.9786 13.128C47.1493 12.488 47.352 11.9547 47.5866 11.528C47.8213 11.1013 48.0666 10.76 48.3226 10.504C48.6 10.2267 48.888 10.024 49.1866 9.896C49.4853 9.768 49.7946 9.68267 50.1146 9.64C50.4773 8.424 50.7546 7.24 50.9466 6.088C51.16 4.91467 51.1813 3.80533 51.0106 2.76C51.0106 2.67466 51.0106 2.632 51.0106 2.632C51.0533 2.61067 51.096 2.62133 51.1386 2.664C51.1813 2.70667 51.2026 2.73867 51.2026 2.76C51.672 3.784 51.864 4.88267 51.7786 6.056C51.6933 7.208 51.48 8.424 51.1386 9.704C51.2453 9.72533 51.3306 9.736 51.3946 9.736C51.4586 9.736 51.5333 9.736 51.6186 9.736C51.7253 9.18133 51.8213 8.59467 51.9066 7.976C52.0133 7.336 52.088 6.728 52.1306 6.152C52.1946 5.576 52.216 5.05333 52.1946 4.584C52.1733 4.11467 52.0986 3.76267 51.9706 3.528C51.9066 3.336 51.9066 3.24 51.9706 3.24C52.0133 3.24 52.0453 3.26133 52.0666 3.304C52.088 3.34667 52.12 3.38933 52.1626 3.432C52.4613 3.73067 52.696 4.136 52.8666 4.648C53.0373 5.16 53.1546 5.704 53.2186 6.28C53.2826 6.856 53.304 7.432 53.2826 8.008C53.2613 8.56267 53.1973 9.05333 53.0906 9.48L52.9626 9.992C53.0266 10.0347 53.0906 10.056 53.1546 10.056C53.2186 10.056 53.2826 10.0667 53.3466 10.088C53.4746 9.448 53.5813 8.808 53.6666 8.168C53.7733 7.528 53.816 6.856 53.7946 6.152C53.7946 6.00267 53.8053 5.928 53.8266 5.928C53.8693 5.928 53.9013 5.96 53.9226 6.024C53.944 6.088 53.9653 6.14133 53.9866 6.184C54.2426 6.65333 54.36 7.24 54.3386 7.944C54.3386 8.648 54.2853 9.39467 54.1786 10.184C54.648 10.184 55.096 10.056 55.5226 9.8C55.6293 9.736 55.6826 9.736 55.6826 9.8ZM49.0586 11.976C49.0586 12.0827 48.9946 12.1893 48.8666 12.296C48.76 12.4027 48.6746 12.4773 48.6106 12.52C48.504 12.6053 48.376 12.712 48.2266 12.84C48.0986 12.9467 47.9813 13.064 47.8746 13.192C47.768 13.3627 47.6613 13.512 47.5546 13.64C47.4693 13.768 47.3946 13.9493 47.3306 14.184C47.3093 14.2267 47.2773 14.2693 47.2346 14.312C47.2133 14.3333 47.192 14.3333 47.1706 14.312C47.1066 14.248 47.1066 14.1093 47.1706 13.896C47.256 13.576 47.3413 13.32 47.4266 13.128C47.512 12.9147 47.672 12.6907 47.9066 12.456C47.992 12.3707 48.0986 12.2853 48.2266 12.2C48.3546 12.1147 48.4826 12.04 48.6106 11.976C48.7386 11.912 48.8453 11.88 48.9306 11.88C49.016 11.88 49.0586 11.912 49.0586 11.976ZM51.5546 24.84C51.6613 24.7973 51.704 24.808 51.6826 24.872C51.6613 24.936 51.6293 24.9787 51.5866 25C51.2026 25.128 50.7973 25.1067 50.3706 24.936C49.944 24.7653 49.5493 24.4987 49.1866 24.136C48.824 23.7733 48.5146 23.3573 48.2586 22.888C48.0026 22.3973 47.8426 21.9173 47.7786 21.448C47.672 20.4453 47.6613 19.4747 47.7466 18.536C47.832 17.5973 47.992 16.6693 48.2266 15.752L48.7706 13.736C48.6426 13.736 48.5146 13.704 48.3866 13.64C48.2373 13.5973 48.1626 13.544 48.1626 13.48C48.1626 13.4373 48.2373 13.3733 48.3866 13.288C48.984 12.9893 49.5813 12.8613 50.1786 12.904C50.7973 12.9467 51.416 13.0213 52.0346 13.128C52.4186 13.192 52.8026 13.2453 53.1866 13.288C53.592 13.3093 54.0293 13.224 54.4986 13.032C54.5413 12.9893 54.584 12.9787 54.6266 13C54.6693 13.0427 54.6586 13.1173 54.5946 13.224C54.4666 13.5013 54.2853 13.704 54.0506 13.832C53.816 13.96 53.5706 14.056 53.3146 14.12C53.144 14.6747 52.9946 15.176 52.8666 15.624C52.7386 16.0507 52.632 16.4133 52.5466 16.712C52.312 17.736 52.0346 18.7813 51.7146 19.848C51.416 20.8933 51.2133 21.7787 51.1066 22.504C51.064 22.7387 51.0213 22.8667 50.9786 22.888C50.936 22.9093 50.8933 22.8667 50.8506 22.76C50.808 22.6533 50.776 22.568 50.7546 22.504C50.6693 21.8853 50.648 21.2453 50.6906 20.584C50.7546 19.9013 50.8613 19.208 51.0106 18.504C51.16 17.8 51.3306 17.096 51.5226 16.392C51.7146 15.6667 51.9173 14.9413 52.1306 14.216C52.024 14.216 51.9173 14.216 51.8106 14.216C51.704 14.216 51.5973 14.2053 51.4906 14.184C51.32 14.632 51.1386 15.08 50.9466 15.528C50.776 15.9547 50.6053 16.36 50.4346 16.744C50.4133 16.7867 50.36 16.8933 50.2746 17.064C50.2106 17.2133 50.1573 17.288 50.1146 17.288C50.0293 17.2667 49.9973 17.1707 50.0186 17C50.04 16.808 50.0506 16.68 50.0506 16.616C50.0933 16.296 50.1573 15.9227 50.2426 15.496C50.3493 15.0693 50.4453 14.6107 50.5306 14.12C50.424 14.0987 50.3066 14.088 50.1786 14.088C50.0506 14.0667 49.9226 14.0347 49.7946 13.992C49.6666 14.4187 49.5386 14.8347 49.4106 15.24C49.304 15.6453 49.1973 16.0507 49.0906 16.456C48.92 17.2027 48.792 18.0027 48.7066 18.856C48.6213 19.688 48.6213 20.552 48.7066 21.448C48.7493 21.8533 48.856 22.2693 49.0266 22.696C49.2186 23.1227 49.4426 23.5067 49.6986 23.848C49.9546 24.1893 50.2426 24.456 50.5626 24.648C50.904 24.84 51.2346 24.904 51.5546 24.84ZM51.8426 24.136C51.9493 24.0507 52.0133 24.0507 52.0346 24.136C52.056 24.2 52.0133 24.264 51.9066 24.328C51.8213 24.392 51.704 24.4453 51.5546 24.488C51.4266 24.5093 51.2773 24.5093 51.1066 24.488C50.936 24.4667 50.7546 24.4027 50.5626 24.296C50.3706 24.1893 50.1893 24.0187 50.0186 23.784C49.8693 23.592 49.7413 23.3147 49.6346 22.952C49.5493 22.5893 49.4853 22.2373 49.4426 21.896C49.4 21.5333 49.3893 21.224 49.4106 20.968C49.432 20.712 49.4853 20.584 49.5706 20.584C49.6773 20.584 49.752 20.7333 49.7946 21.032C49.8586 21.3307 49.912 21.576 49.9546 21.768C50.04 22.1093 50.1573 22.4613 50.3066 22.824C50.456 23.1867 50.616 23.4747 50.7866 23.688C51 23.9653 51.192 24.136 51.3626 24.2C51.5333 24.2427 51.6933 24.2213 51.8426 24.136ZM69.1219 2.824C69.2712 2.71733 69.3352 2.71733 69.3139 2.824C69.2925 2.90933 69.2605 2.984 69.2179 3.048C69.0259 3.34667 68.7699 3.60266 68.4499 3.816C68.1512 4.02933 67.8205 4.2 67.4579 4.328C67.1165 4.456 66.7752 4.552 66.4339 4.616C66.0925 4.68 65.7939 4.712 65.5379 4.712C64.8765 4.712 64.1939 4.648 63.4899 4.52C62.7859 4.392 62.0819 4.25333 61.3779 4.104C61.3352 4.104 61.2605 4.08267 61.1539 4.04C61.0472 3.99733 60.9939 3.95467 60.9939 3.912C60.9512 3.848 60.9832 3.79467 61.0899 3.752C61.2179 3.70933 61.3032 3.688 61.3459 3.688C61.4952 3.64533 61.6872 3.61333 61.9219 3.592C62.1779 3.54933 62.4445 3.51733 62.7219 3.496C62.9992 3.47467 63.2552 3.464 63.4899 3.464C63.7459 3.464 63.9592 3.464 64.1299 3.464C64.5992 3.50667 65.0792 3.528 65.5699 3.528C66.0819 3.528 66.5619 3.50667 67.0099 3.464C67.4579 3.42133 67.8632 3.34667 68.2259 3.24C68.6099 3.13333 68.9085 2.99467 69.1219 2.824ZM69.5699 1.768C69.6765 1.72533 69.7085 1.736 69.6659 1.8C69.6232 1.864 69.5912 1.90667 69.5699 1.928C69.0152 2.41867 68.4072 2.728 67.7459 2.856C67.0845 2.984 66.3912 3.03733 65.6659 3.016C64.9619 2.97333 64.2259 2.90933 63.4579 2.824C62.7112 2.71733 61.9539 2.68533 61.1859 2.728C60.7379 2.74933 60.2685 2.83467 59.7779 2.984C59.2872 3.13333 58.8179 3.34667 58.3699 3.624C57.9432 3.88 57.5485 4.22133 57.1859 4.648C56.8445 5.05333 56.5779 5.52267 56.3859 6.056C56.3432 6.14133 56.3112 6.184 56.2899 6.184C56.2899 6.184 56.2792 6.17333 56.2579 6.152C56.2579 6.13067 56.2579 6.09867 56.2579 6.056C56.2579 6.01333 56.2579 5.98133 56.2579 5.96C56.3859 5.192 56.6205 4.54133 56.9619 4.008C57.3032 3.47467 57.7085 3.048 58.1779 2.728C58.6472 2.38667 59.1592 2.14133 59.7139 1.992C60.2685 1.84267 60.8232 1.75733 61.3779 1.736C62.1459 1.71467 62.8925 1.74667 63.6179 1.832C64.3645 1.896 65.0792 1.96 65.7619 2.024C66.4659 2.088 67.1379 2.12 67.7779 2.12C68.4179 2.09867 69.0152 1.98133 69.5699 1.768ZM59.0419 4.264C59.0845 4.328 59.0205 4.43467 58.8499 4.584C58.6792 4.73333 58.5512 4.82933 58.4659 4.872C58.2952 5 58.1352 5.128 57.9859 5.256C57.8365 5.36267 57.6979 5.50133 57.5699 5.672C57.3992 5.864 57.2499 6.056 57.1219 6.248C57.0152 6.44 56.9085 6.65333 56.8019 6.888C56.7592 7.03733 56.7165 7.112 56.6739 7.112C56.6525 7.112 56.6419 7.03733 56.6419 6.888V6.664C56.6845 6.344 56.7485 6.056 56.8339 5.8C56.9192 5.544 57.0685 5.27733 57.2819 5C57.3672 4.872 57.5059 4.75467 57.6979 4.648C57.9112 4.52 58.1139 4.41333 58.3059 4.328C58.4979 4.24267 58.6685 4.18933 58.8179 4.168C58.9672 4.14667 59.0419 4.17867 59.0419 4.264ZM67.6819 4.968C67.7885 4.92533 67.8312 4.936 67.8099 5C67.8099 5.04267 67.7885 5.08533 67.7459 5.128C67.4685 5.448 67.0632 5.68267 66.5299 5.832C66.0179 5.98133 65.4632 6.088 64.8659 6.152C64.2685 6.19467 63.6712 6.20533 63.0739 6.184C62.4979 6.16267 62.0179 6.152 61.6339 6.152C61.7619 6.57867 61.8152 7.10133 61.7939 7.72C61.7939 8.31733 61.7405 8.968 61.6339 9.672C61.5485 10.3547 61.4312 11.048 61.2819 11.752C61.1325 12.456 60.9832 13.1173 60.8339 13.736C61.4099 13.7787 61.9752 13.8427 62.5299 13.928C63.0845 13.992 63.6179 14.0453 64.1299 14.088C64.6419 14.1093 65.1325 14.1093 65.6019 14.088C66.0712 14.0453 66.5299 13.9387 66.9779 13.768C67.0845 13.7253 67.1379 13.736 67.1379 13.8C67.1379 13.864 67.1165 13.9173 67.0739 13.96C66.5619 14.472 65.9965 14.792 65.3779 14.92C64.7592 15.048 64.1085 15.0907 63.4259 15.048C62.7432 15.0053 62.0499 14.9307 61.3459 14.824C60.6419 14.7173 59.9379 14.6747 59.2339 14.696C58.7859 14.7173 58.3379 14.792 57.8899 14.92C57.4419 15.048 57.0045 15.24 56.5779 15.496C56.1725 15.752 55.7885 16.072 55.4259 16.456C55.0845 16.8187 54.8072 17.256 54.5939 17.768C54.5725 17.8533 54.5405 17.896 54.4979 17.896C54.4552 17.896 54.4339 17.864 54.4339 17.8C54.4339 17.7147 54.4445 17.6507 54.4659 17.608C54.5725 16.9893 54.7539 16.4773 55.0099 16.072C55.2659 15.6667 55.5752 15.3147 55.9379 15.016C56.3005 13.48 56.7059 11.944 57.1539 10.408C57.6232 8.872 58.0072 7.42133 58.3059 6.056C58.2845 6.056 58.2099 6.056 58.0819 6.056C57.9752 6.03467 57.9219 6.00267 57.9219 5.96C57.9219 5.91733 57.9539 5.87467 58.0179 5.832C58.0819 5.78933 58.1459 5.74667 58.2099 5.704C59.1059 5.27733 60.0232 5.05333 60.9619 5.032C61.9005 4.98933 62.8605 5.01067 63.8419 5.096C64.4605 5.13867 65.0792 5.18133 65.6979 5.224C66.3379 5.26667 66.9992 5.18133 67.6819 4.968ZM60.6419 6.152C60.6632 6.68533 60.6632 7.18667 60.6419 7.656C60.6205 8.12533 60.5565 8.54133 60.4499 8.904C60.2579 9.672 60.0445 10.472 59.8099 11.304C59.5752 12.136 59.3085 12.9467 59.0099 13.736C59.0952 13.7147 59.1912 13.704 59.2979 13.704C59.4045 13.704 59.5112 13.704 59.6179 13.704L60.0979 12.2C60.3965 11.2613 60.6632 10.2907 60.8979 9.288C61.1539 8.28533 61.3139 7.24 61.3779 6.152H60.6419ZM59.2659 6.12C59.0952 7.4 58.7859 8.712 58.3379 10.056C57.8899 11.4 57.4845 12.776 57.1219 14.184C57.2925 14.12 57.4419 14.0667 57.5699 14.024C57.7192 13.96 57.8579 13.9067 57.9859 13.864C58.0925 13.4373 58.1992 13.032 58.3059 12.648C58.4125 12.2427 58.5192 11.8907 58.6259 11.592C58.6685 11.464 58.7432 11.2187 58.8499 10.856C58.9565 10.4933 59.0739 10.056 59.2019 9.544C59.3299 9.032 59.4579 8.47733 59.5859 7.88C59.7139 7.28267 59.8099 6.696 59.8739 6.12H59.2659ZM66.6899 14.824C66.7965 14.7387 66.8392 14.7493 66.8179 14.856C66.8179 14.9413 66.7965 15.0053 66.7539 15.048C66.5832 15.3467 66.3592 15.6133 66.0819 15.848C65.8259 16.0827 65.5485 16.2747 65.2499 16.424C64.9512 16.552 64.6419 16.6587 64.3219 16.744C64.0232 16.808 63.7565 16.8293 63.5219 16.808C62.8605 16.7653 62.1672 16.68 61.4419 16.552C60.7165 16.4027 60.0232 16.2533 59.3619 16.104C59.3192 16.0827 59.2445 16.0613 59.1379 16.04C59.0525 15.9973 59.0099 15.944 59.0099 15.88C58.9885 15.8373 59.0205 15.7947 59.1059 15.752C59.2125 15.688 59.2872 15.656 59.3299 15.656C59.4792 15.6133 59.6605 15.5813 59.8739 15.56C60.1085 15.5387 60.3432 15.5173 60.5779 15.496C60.8339 15.4747 61.0685 15.4747 61.2819 15.496C61.5165 15.496 61.7085 15.5067 61.8579 15.528C62.2419 15.5707 62.6579 15.592 63.1059 15.592C63.5752 15.592 64.0339 15.56 64.4819 15.496C64.9512 15.432 65.3779 15.3467 65.7619 15.24C66.1459 15.1333 66.4552 14.9947 66.6899 14.824ZM67.3939 20.84C67.4365 20.8187 67.4579 20.8293 67.4579 20.872C67.4579 20.9147 67.4472 20.9573 67.4259 21C66.9565 21.512 66.4339 21.832 65.8579 21.96C65.3032 22.088 64.7165 22.1413 64.0979 22.12C63.4792 22.0773 62.8499 21.992 62.2099 21.864C61.5699 21.736 60.9405 21.672 60.3219 21.672C59.5325 21.6507 58.7219 21.832 57.8899 22.216C57.0792 22.6 56.3965 23.2613 55.8419 24.2C55.7779 24.2853 55.7352 24.328 55.7139 24.328C55.6925 24.328 55.6819 24.296 55.6819 24.232C55.7032 24.168 55.7139 24.1253 55.7139 24.104C55.7992 23.8693 55.8739 23.688 55.9379 23.56C56.0232 23.432 56.1085 23.2827 56.1939 23.112C55.8952 22.5147 55.6819 21.9173 55.5539 21.32C55.4259 20.7013 55.3512 20.0613 55.3299 19.4C55.3299 18.9093 55.3725 18.5467 55.4579 18.312C55.5432 18.0773 55.8312 17.832 56.3219 17.576C57.1325 17.1493 57.9965 16.936 58.9139 16.936C59.8312 16.936 60.7485 16.9893 61.6659 17.096C62.2632 17.16 62.8605 17.2133 63.4579 17.256C64.0552 17.2773 64.6739 17.1813 65.3139 16.968C65.4205 16.9253 65.4632 16.9467 65.4419 17.032C65.4205 17.096 65.3885 17.1493 65.3459 17.192C65.0685 17.5333 64.6845 17.768 64.1939 17.896C63.7032 18.024 63.1805 18.1093 62.6259 18.152C62.0712 18.1733 61.5379 18.1733 61.0259 18.152C60.5139 18.1307 60.1085 18.1307 59.8099 18.152H59.6179C59.4685 18.664 59.3085 19.1547 59.1379 19.624C58.9885 20.072 58.8392 20.5093 58.6899 20.936C59.0099 20.8293 59.3085 20.7547 59.5859 20.712C59.8845 20.648 60.1939 20.6267 60.5139 20.648C61.1325 20.6693 61.7512 20.7333 62.3699 20.84C62.9885 20.9467 63.5859 21.0427 64.1619 21.128C64.7592 21.192 65.3245 21.224 65.8579 21.224C66.4125 21.2027 66.9245 21.0747 67.3939 20.84ZM58.5299 18.12C58.4019 18.0987 58.1992 18.0773 57.9219 18.056C57.6659 18.0133 57.3779 18.0133 57.0579 18.056C56.8445 18.0773 56.6632 18.1627 56.5139 18.312C56.3645 18.4613 56.2792 18.6427 56.2579 18.856C56.2152 19.496 56.2259 20.1147 56.2899 20.712C56.3539 21.288 56.4605 21.8853 56.6099 22.504L56.9939 22.024C56.9725 21.768 56.9619 21.4907 56.9619 21.192C56.9619 20.8933 56.9725 20.6267 56.9939 20.392C57.0365 20.136 57.0792 19.9333 57.1219 19.784C57.1645 19.6347 57.2179 19.56 57.2819 19.56C57.3245 19.56 57.3565 19.6133 57.3779 19.72C57.3992 19.8267 57.4205 19.944 57.4419 20.072C57.4632 20.2 57.4739 20.328 57.4739 20.456C57.4952 20.584 57.5059 20.68 57.5059 20.744C57.5272 20.872 57.5379 21 57.5379 21.128C57.5592 21.2347 57.5805 21.352 57.6019 21.48C57.7085 21.416 57.8045 21.352 57.8899 21.288C57.9752 21.224 58.0712 21.1707 58.1779 21.128C58.1992 20.168 58.3165 19.1653 58.5299 18.12ZM67.1699 21.896C67.1699 21.96 67.1485 22.0347 67.1059 22.12C66.9779 22.4187 66.7965 22.6853 66.5619 22.92C66.3272 23.1333 66.0712 23.3147 65.7939 23.464C65.5165 23.6133 65.2285 23.7307 64.9299 23.816C64.6525 23.88 64.4072 23.912 64.1939 23.912C63.4472 23.912 62.7645 23.8267 62.1459 23.656C61.5485 23.4853 60.9512 23.2933 60.3539 23.08C60.3112 23.0587 60.2472 23.0267 60.1619 22.984C60.0765 22.9413 60.0232 22.888 60.0019 22.824C59.9805 22.7813 60.0232 22.7387 60.1299 22.696C60.2365 22.6533 60.3112 22.632 60.3539 22.632C60.4819 22.6107 60.6419 22.6 60.8339 22.6C61.0472 22.5787 61.2605 22.568 61.4739 22.568C61.7085 22.568 61.9325 22.5787 62.1459 22.6C62.3592 22.6 62.5405 22.6 62.6899 22.6C63.0525 22.6213 63.4472 22.6427 63.8739 22.664C64.3005 22.664 64.7059 22.6427 65.0899 22.6C65.4952 22.536 65.8685 22.4507 66.2099 22.344C66.5725 22.2373 66.8499 22.088 67.0419 21.896C67.1059 21.832 67.1485 21.832 67.1699 21.896ZM57.2179 16.136C57.2179 16.2 57.1432 16.296 56.9939 16.424C56.8659 16.552 56.7059 16.6907 56.5139 16.84C56.3432 16.9893 56.1725 17.128 56.0019 17.256C55.8525 17.384 55.7565 17.4693 55.7139 17.512C55.5432 17.6827 55.3832 17.8533 55.2339 18.024C55.0845 18.1733 54.9565 18.3653 54.8499 18.6C54.7432 18.792 54.6899 18.824 54.6899 18.696C54.6899 18.5467 54.7005 18.44 54.7219 18.376C54.7645 18.2053 54.8285 17.9813 54.9139 17.704C55.0205 17.4053 55.2125 17.1173 55.4899 16.84C55.6179 16.7333 55.7672 16.6267 55.9379 16.52C56.1299 16.392 56.3112 16.296 56.4819 16.232C56.6739 16.1467 56.8339 16.0933 56.9619 16.072C57.1112 16.0507 57.1965 16.072 57.2179 16.136ZM65.9859 24.072C66.0072 24.1573 65.9752 24.2213 65.8899 24.264C65.6339 24.4773 65.2712 24.6373 64.8019 24.744C64.3539 24.8293 63.8632 24.8933 63.3299 24.936C62.8179 24.9787 62.3165 25 61.8259 25C61.3352 25 60.9405 25 60.6419 25C60.1085 25 59.5432 24.968 58.9459 24.904C58.3699 24.8187 57.8685 24.7227 57.4419 24.616C57.3992 24.5947 57.3352 24.584 57.2499 24.584C57.1859 24.5627 57.1539 24.5307 57.1539 24.488C57.1539 24.4453 57.1859 24.4133 57.2499 24.392C57.3352 24.3493 57.3992 24.3173 57.4419 24.296C58.2525 24.04 59.0739 23.9333 59.9059 23.976C60.7592 23.9973 61.6125 24.0613 62.4659 24.168C62.9992 24.2533 63.5325 24.3173 64.0659 24.36C64.6205 24.4027 65.1965 24.3067 65.7939 24.072C65.9219 24.0293 65.9859 24.0293 65.9859 24.072ZM58.4019 22.984C58.4019 23.048 58.3272 23.1333 58.1779 23.24C58.0499 23.3253 57.9005 23.4213 57.7299 23.528C57.5592 23.6347 57.3885 23.7413 57.2179 23.848C57.0685 23.9333 56.9619 23.9973 56.8979 24.04C56.7272 24.1893 56.5779 24.3173 56.4499 24.424C56.3219 24.5307 56.1939 24.6693 56.0659 24.84C55.9592 24.9467 55.8845 25 55.8419 25H55.8099V24.968C55.8099 24.968 55.8099 24.9467 55.8099 24.904C55.9165 24.584 56.0232 24.3173 56.1299 24.104C56.2579 23.8907 56.4712 23.6667 56.7699 23.432C56.8979 23.3467 57.0472 23.2613 57.2179 23.176C57.3885 23.0693 57.5592 22.9947 57.7299 22.952C57.9005 22.888 58.0499 22.856 58.1779 22.856C58.3059 22.856 58.3805 22.8987 58.4019 22.984ZM81.6616 13.736C81.491 14.5893 81.203 15.4427 80.7976 16.296C80.3923 17.1493 80.0083 17.9493 79.6456 18.696C79.6243 18.7387 79.571 18.8133 79.4856 18.92C79.4216 19.0267 79.3683 19.08 79.3256 19.08C79.2616 19.0587 79.2296 18.9947 79.2296 18.888C79.2296 18.76 79.2296 18.6747 79.2296 18.632C79.251 18.44 79.283 18.216 79.3256 17.96C79.3896 17.6827 79.443 17.4053 79.4856 17.128C79.5283 16.8293 79.571 16.552 79.6136 16.296C79.6776 16.0187 79.7416 15.7733 79.8056 15.56C79.9976 14.8347 80.1576 14.216 80.2856 13.704C80.4136 13.1707 80.5096 12.6907 80.5736 12.264C80.6376 11.8373 80.6696 11.432 80.6696 11.048C80.691 10.664 80.6696 10.248 80.6056 9.8C80.5843 9.62933 80.595 9.52267 80.6376 9.48C80.6803 9.45867 80.7336 9.48 80.7976 9.544C80.8616 9.608 80.915 9.672 80.9576 9.736C81.3203 10.312 81.5656 10.952 81.6936 11.656C81.8216 12.3387 81.811 13.032 81.6616 13.736ZM82.4296 11.592C82.707 11.9973 82.8456 12.5307 82.8456 13.192C82.8456 13.8533 82.7816 14.536 82.6536 15.24C82.5256 15.9227 82.3656 16.584 82.1736 17.224C81.9816 17.864 81.843 18.376 81.7576 18.76C81.587 19.5067 81.3523 20.2533 81.0536 21C80.755 21.7467 80.499 22.408 80.2856 22.984C80.2643 23.048 80.2323 23.1227 80.1896 23.208C80.147 23.272 80.1043 23.304 80.0616 23.304C80.019 23.304 79.9976 23.2613 79.9976 23.176C79.9976 23.0907 79.9976 23.016 79.9976 22.952C79.9336 21.7787 80.0616 20.6373 80.3816 19.528C80.7016 18.3973 81.043 17.256 81.4056 16.104C81.619 15.4 81.8216 14.6853 82.0136 13.96C82.2056 13.2133 82.291 12.4027 82.2696 11.528C82.2696 11.4427 82.2803 11.4 82.3016 11.4L82.4296 11.592ZM79.4216 11.048C78.1203 11.5813 77.011 12.3493 76.0936 13.352C75.1976 14.3333 74.5043 15.4427 74.0136 16.68C73.8003 17.2347 73.6403 17.736 73.5336 18.184C73.427 18.6107 73.3416 19.08 73.2776 19.592C73.2563 19.6987 73.2883 19.8053 73.3736 19.912C73.459 20.0187 73.5443 20.0187 73.6296 19.912C74.0136 19.4427 74.5043 18.8453 75.1016 18.12C75.699 17.3947 76.2963 16.6267 76.8936 15.816C77.491 15.0053 78.0243 14.184 78.4936 13.352C78.9843 12.52 79.2936 11.752 79.4216 11.048ZM77.2776 21.896C76.9576 22.344 76.6483 22.76 76.3496 23.144C76.051 23.528 75.7203 23.8693 75.3576 24.168C74.995 24.4453 74.5896 24.6693 74.1416 24.84C73.6936 25.0107 73.1816 25.1067 72.6056 25.128C71.6456 25.1707 70.9096 24.9253 70.3976 24.392C69.907 23.8587 69.5656 23.208 69.3736 22.44C69.1816 21.672 69.107 20.8827 69.1496 20.072C69.2136 19.24 69.331 18.5573 69.5016 18.024C69.7363 17.2773 70.0136 16.5733 70.3336 15.912C70.675 15.2293 71.027 14.6213 71.3896 14.088C71.7736 13.5333 72.1576 13.064 72.5416 12.68C72.947 12.2747 73.3416 11.9653 73.7256 11.752C73.747 11.752 73.7896 11.7307 73.8536 11.688C73.939 11.6453 73.9816 11.656 73.9816 11.72C74.003 11.72 73.9923 11.752 73.9496 11.816C73.907 11.88 73.8643 11.9333 73.8216 11.976C72.7123 13.128 71.827 14.4293 71.1656 15.88C70.5256 17.3307 70.163 18.824 70.0776 20.36C70.0563 20.744 70.067 21.16 70.1096 21.608C70.1736 22.056 70.2803 22.4827 70.4296 22.888C70.6003 23.272 70.835 23.6027 71.1336 23.88C71.4323 24.136 71.8376 24.264 72.3496 24.264C72.755 24.264 73.1283 24.2 73.4696 24.072C73.811 23.9227 74.131 23.7413 74.4296 23.528C74.7283 23.2933 74.995 23.048 75.2296 22.792C75.4856 22.5147 75.7096 22.2587 75.9016 22.024C76.3283 21.4907 76.723 20.936 77.0856 20.36C77.0856 19.9333 77.107 19.5173 77.1496 19.112C77.2136 18.7067 77.299 18.3013 77.4056 17.896C77.4696 17.5973 77.523 17.3627 77.5656 17.192C77.6296 17 77.683 16.8293 77.7256 16.68C77.7896 16.5093 77.843 16.3387 77.8856 16.168C77.9496 15.976 78.035 15.7307 78.1416 15.432C77.8003 16.0293 77.459 16.5947 77.1176 17.128C76.7976 17.64 76.4456 18.1413 76.0616 18.632C75.699 19.1013 75.315 19.5707 74.9096 20.04C74.5256 20.488 74.099 20.9467 73.6296 21.416C73.267 21.7787 72.9683 21.896 72.7336 21.768C72.499 21.64 72.3603 21.3413 72.3176 20.872C72.275 20.1467 72.307 19.4427 72.4136 18.76C72.5416 18.0773 72.755 17.3627 73.0536 16.616C73.331 15.9333 73.6723 15.272 74.0776 14.632C74.5043 13.992 74.9843 13.416 75.5176 12.904C76.0723 12.3707 76.6803 11.9227 77.3416 11.56C78.003 11.176 78.707 10.92 79.4536 10.792C79.4963 10.5573 79.5283 10.3547 79.5496 10.184C79.5923 10.0133 79.6243 9.84267 79.6456 9.672C79.6883 9.43733 79.7096 9.32 79.7096 9.32C79.7523 9.29867 79.795 9.32 79.8376 9.384C79.9016 9.448 79.955 9.53333 79.9976 9.64C80.2536 10.344 80.339 11.048 80.2536 11.752C80.1683 12.456 80.0083 13.1707 79.7736 13.896C79.5603 14.6213 79.3043 15.368 79.0056 16.136C78.707 16.8827 78.4616 17.64 78.2696 18.408C78.0136 19.496 77.939 20.6267 78.0456 21.8C78.1736 22.952 78.6323 23.9973 79.4216 24.936C79.4856 25.0213 79.5176 25.064 79.5176 25.064C79.4963 25.0853 79.4323 25.064 79.3256 25C78.707 24.616 78.2376 24.1573 77.9176 23.624C77.619 23.0693 77.4056 22.4933 77.2776 21.896ZM78.3976 10.568C78.4403 10.6107 78.4296 10.6427 78.3656 10.664C78.323 10.6853 78.2163 10.7173 78.0456 10.76C77.7683 10.8453 77.427 11.0053 77.0216 11.24C76.6376 11.4747 76.2216 11.7733 75.7736 12.136C75.347 12.4987 74.9203 12.9253 74.4936 13.416C74.067 13.8853 73.6936 14.3973 73.3736 14.952C73.0536 15.528 72.7763 16.0933 72.5416 16.648C72.3283 17.2027 72.147 17.7147 71.9976 18.184C71.8696 18.632 71.7736 19.0267 71.7096 19.368C71.6456 19.688 71.6136 19.912 71.6136 20.04C71.6136 20.36 71.6136 20.7013 71.6136 21.064C71.6136 21.4053 71.6563 21.7147 71.7416 21.992C71.827 22.2693 71.9763 22.4827 72.1896 22.632C72.403 22.7813 72.723 22.824 73.1496 22.76C73.171 22.76 73.2243 22.7493 73.3096 22.728C73.395 22.6853 73.4803 22.6533 73.5656 22.632C73.651 22.5893 73.7256 22.5573 73.7896 22.536C73.875 22.5147 73.9283 22.504 73.9496 22.504C73.971 22.5467 73.9496 22.6 73.8856 22.664C73.843 22.728 73.779 22.8027 73.6936 22.888C73.6083 22.952 73.523 23.016 73.4376 23.08C73.3736 23.144 73.331 23.1867 73.3096 23.208C72.7763 23.528 72.3283 23.624 71.9656 23.496C71.603 23.368 71.315 23.1333 71.1016 22.792C70.9096 22.4293 70.771 22.0133 70.6856 21.544C70.6216 21.0533 70.6003 20.616 70.6216 20.232C70.6643 19.4853 70.7816 18.7493 70.9736 18.024C71.1656 17.2773 71.411 16.5307 71.7096 15.784C71.9443 15.208 72.2963 14.6213 72.7656 14.024C73.235 13.4053 73.7576 12.84 74.3336 12.328C74.931 11.816 75.5496 11.4 76.1896 11.08C76.8296 10.7387 77.4483 10.5573 78.0456 10.536C78.259 10.536 78.3763 10.5467 78.3976 10.568ZM80.2856 24.936C80.3283 25 80.339 25.0427 80.3176 25.064C80.2536 25.064 80.1683 25.0427 80.0616 25C79.9976 24.9573 79.827 24.8293 79.5496 24.616C79.2723 24.4027 79.0696 24.0613 78.9416 23.592C78.899 23.4213 78.8563 23.208 78.8136 22.952C78.7923 22.6747 78.7816 22.4187 78.7816 22.184C78.7816 21.9493 78.7923 21.7467 78.8136 21.576C78.8563 21.4053 78.9096 21.32 78.9736 21.32C79.0376 21.32 79.1016 21.448 79.1656 21.704C79.251 21.96 79.3043 22.12 79.3256 22.184C79.3896 22.4827 79.443 22.7493 79.4856 22.984C79.5496 23.1973 79.6136 23.4 79.6776 23.592C79.763 23.8267 79.8696 24.0933 79.9976 24.392C80.147 24.6907 80.243 24.872 80.2856 24.936ZM92.3649 10.792C92.3862 10.8133 92.3969 10.8667 92.3969 10.952C92.3969 11.016 92.3862 11.0693 92.3649 11.112C92.1729 11.7307 91.8422 12.168 91.3729 12.424C90.9035 12.68 90.4875 12.808 90.1249 12.808C89.6769 12.808 89.2182 12.776 88.7489 12.712C88.2795 12.6267 87.8315 12.424 87.4049 12.104C87.3622 12.0613 87.3089 12.0187 87.2449 11.976C87.1809 11.9333 87.1489 11.8907 87.1489 11.848C87.1489 11.784 87.1809 11.7413 87.2449 11.72C87.3089 11.6773 87.3622 11.6453 87.4049 11.624C87.5969 11.5813 87.8422 11.5493 88.1409 11.528C88.4609 11.4853 88.7702 11.4853 89.0689 11.528C89.2822 11.5707 89.5382 11.592 89.8369 11.592C90.1355 11.592 90.4342 11.5707 90.7329 11.528C91.0529 11.4853 91.3409 11.4213 91.5969 11.336C91.8529 11.2293 92.0449 11.08 92.1729 10.888C92.2369 10.8027 92.3009 10.7707 92.3649 10.792ZM92.5889 9.8L92.4929 9.96C92.1302 10.4293 91.7462 10.7387 91.3409 10.888C90.9355 11.016 90.5089 11.0693 90.0609 11.048C89.6129 11.0267 89.1542 10.9733 88.6849 10.888C88.2369 10.7813 87.7889 10.7173 87.3409 10.696C86.7435 10.6747 86.1462 10.856 85.5489 11.24C84.9515 11.624 84.4395 12.296 84.0129 13.256C83.9489 13.384 83.9062 13.416 83.8849 13.352C83.8635 13.2667 83.8635 13.192 83.8849 13.128C84.0555 12.488 84.2582 11.9547 84.4929 11.528C84.7275 11.1013 84.9729 10.76 85.2289 10.504C85.5062 10.2267 85.7942 10.024 86.0929 9.896C86.3915 9.768 86.7009 9.68267 87.0209 9.64C87.3835 8.424 87.6609 7.24 87.8529 6.088C88.0662 4.91467 88.0875 3.80533 87.9169 2.76C87.9169 2.67466 87.9169 2.632 87.9169 2.632C87.9595 2.61067 88.0022 2.62133 88.0449 2.664C88.0875 2.70667 88.1089 2.73867 88.1089 2.76C88.5782 3.784 88.7702 4.88267 88.6849 6.056C88.5995 7.208 88.3862 8.424 88.0449 9.704C88.1515 9.72533 88.2369 9.736 88.3009 9.736C88.3649 9.736 88.4395 9.736 88.5249 9.736C88.6315 9.18133 88.7275 8.59467 88.8129 7.976C88.9195 7.336 88.9942 6.728 89.0369 6.152C89.1009 5.576 89.1222 5.05333 89.1009 4.584C89.0795 4.11467 89.0049 3.76267 88.8769 3.528C88.8129 3.336 88.8129 3.24 88.8769 3.24C88.9195 3.24 88.9515 3.26133 88.9729 3.304C88.9942 3.34667 89.0262 3.38933 89.0689 3.432C89.3675 3.73067 89.6022 4.136 89.7729 4.648C89.9435 5.16 90.0609 5.704 90.1249 6.28C90.1889 6.856 90.2102 7.432 90.1889 8.008C90.1675 8.56267 90.1035 9.05333 89.9969 9.48L89.8689 9.992C89.9329 10.0347 89.9969 10.056 90.0609 10.056C90.1249 10.056 90.1889 10.0667 90.2529 10.088C90.3809 9.448 90.4875 8.808 90.5729 8.168C90.6795 7.528 90.7222 6.856 90.7009 6.152C90.7009 6.00267 90.7115 5.928 90.7329 5.928C90.7755 5.928 90.8075 5.96 90.8289 6.024C90.8502 6.088 90.8715 6.14133 90.8929 6.184C91.1489 6.65333 91.2662 7.24 91.2449 7.944C91.2449 8.648 91.1915 9.39467 91.0849 10.184C91.5542 10.184 92.0022 10.056 92.4289 9.8C92.5355 9.736 92.5889 9.736 92.5889 9.8ZM85.9649 11.976C85.9649 12.0827 85.9009 12.1893 85.7729 12.296C85.6662 12.4027 85.5809 12.4773 85.5169 12.52C85.4102 12.6053 85.2822 12.712 85.1329 12.84C85.0049 12.9467 84.8875 13.064 84.7809 13.192C84.6742 13.3627 84.5675 13.512 84.4609 13.64C84.3755 13.768 84.3009 13.9493 84.2369 14.184C84.2155 14.2267 84.1835 14.2693 84.1409 14.312C84.1195 14.3333 84.0982 14.3333 84.0769 14.312C84.0129 14.248 84.0129 14.1093 84.0769 13.896C84.1622 13.576 84.2475 13.32 84.3329 13.128C84.4182 12.9147 84.5782 12.6907 84.8129 12.456C84.8982 12.3707 85.0049 12.2853 85.1329 12.2C85.2609 12.1147 85.3889 12.04 85.5169 11.976C85.6449 11.912 85.7515 11.88 85.8369 11.88C85.9222 11.88 85.9649 11.912 85.9649 11.976ZM88.4609 24.84C88.5675 24.7973 88.6102 24.808 88.5889 24.872C88.5675 24.936 88.5355 24.9787 88.4929 25C88.1089 25.128 87.7035 25.1067 87.2769 24.936C86.8502 24.7653 86.4555 24.4987 86.0929 24.136C85.7302 23.7733 85.4209 23.3573 85.1649 22.888C84.9089 22.3973 84.7489 21.9173 84.6849 21.448C84.5782 20.4453 84.5675 19.4747 84.6529 18.536C84.7382 17.5973 84.8982 16.6693 85.1329 15.752L85.6769 13.736C85.5489 13.736 85.4209 13.704 85.2929 13.64C85.1435 13.5973 85.0689 13.544 85.0689 13.48C85.0689 13.4373 85.1435 13.3733 85.2929 13.288C85.8902 12.9893 86.4875 12.8613 87.0849 12.904C87.7035 12.9467 88.3222 13.0213 88.9409 13.128C89.3249 13.192 89.7089 13.2453 90.0929 13.288C90.4982 13.3093 90.9355 13.224 91.4049 13.032C91.4475 12.9893 91.4902 12.9787 91.5329 13C91.5755 13.0427 91.5649 13.1173 91.5009 13.224C91.3729 13.5013 91.1915 13.704 90.9569 13.832C90.7222 13.96 90.4769 14.056 90.2209 14.12C90.0502 14.6747 89.9009 15.176 89.7729 15.624C89.6449 16.0507 89.5382 16.4133 89.4529 16.712C89.2182 17.736 88.9409 18.7813 88.6209 19.848C88.3222 20.8933 88.1195 21.7787 88.0129 22.504C87.9702 22.7387 87.9275 22.8667 87.8849 22.888C87.8422 22.9093 87.7995 22.8667 87.7569 22.76C87.7142 22.6533 87.6822 22.568 87.6609 22.504C87.5755 21.8853 87.5542 21.2453 87.5969 20.584C87.6609 19.9013 87.7675 19.208 87.9169 18.504C88.0662 17.8 88.2369 17.096 88.4289 16.392C88.6209 15.6667 88.8235 14.9413 89.0369 14.216C88.9302 14.216 88.8235 14.216 88.7169 14.216C88.6102 14.216 88.5035 14.2053 88.3969 14.184C88.2262 14.632 88.0449 15.08 87.8529 15.528C87.6822 15.9547 87.5115 16.36 87.3409 16.744C87.3195 16.7867 87.2662 16.8933 87.1809 17.064C87.1169 17.2133 87.0635 17.288 87.0209 17.288C86.9355 17.2667 86.9035 17.1707 86.9249 17C86.9462 16.808 86.9569 16.68 86.9569 16.616C86.9995 16.296 87.0635 15.9227 87.1489 15.496C87.2555 15.0693 87.3515 14.6107 87.4369 14.12C87.3302 14.0987 87.2129 14.088 87.0849 14.088C86.9569 14.0667 86.8289 14.0347 86.7009 13.992C86.5729 14.4187 86.4449 14.8347 86.3169 15.24C86.2102 15.6453 86.1035 16.0507 85.9969 16.456C85.8262 17.2027 85.6982 18.0027 85.6129 18.856C85.5275 19.688 85.5275 20.552 85.6129 21.448C85.6555 21.8533 85.7622 22.2693 85.9329 22.696C86.1249 23.1227 86.3489 23.5067 86.6049 23.848C86.8609 24.1893 87.1489 24.456 87.4689 24.648C87.8102 24.84 88.1409 24.904 88.4609 24.84ZM88.7489 24.136C88.8555 24.0507 88.9195 24.0507 88.9409 24.136C88.9622 24.2 88.9195 24.264 88.8129 24.328C88.7275 24.392 88.6102 24.4453 88.4609 24.488C88.3329 24.5093 88.1835 24.5093 88.0129 24.488C87.8422 24.4667 87.6609 24.4027 87.4689 24.296C87.2769 24.1893 87.0955 24.0187 86.9249 23.784C86.7755 23.592 86.6475 23.3147 86.5409 22.952C86.4555 22.5893 86.3915 22.2373 86.3489 21.896C86.3062 21.5333 86.2955 21.224 86.3169 20.968C86.3382 20.712 86.3915 20.584 86.4769 20.584C86.5835 20.584 86.6582 20.7333 86.7009 21.032C86.7649 21.3307 86.8182 21.576 86.8609 21.768C86.9462 22.1093 87.0635 22.4613 87.2129 22.824C87.3622 23.1867 87.5222 23.4747 87.6929 23.688C87.9062 23.9653 88.0982 24.136 88.2689 24.2C88.4395 24.2427 88.5995 24.2213 88.7489 24.136Z" fill="url(#paint0_linear_264_986)"/>
<defs>
<linearGradient id="paint0_linear_264_986" x1="45.5" y1="-1" x2="45.5" y2="27" gradientUnits="userSpaceOnUse">
<stop stop-color="#A97E58"/>
<stop offset="1" stop-color="#311F10"/>
</linearGradient>
</defs>
</svg>
